<mxfile host="app.diagrams.net" modified="2023-10-25T01:32:43.201Z" agent="Mozilla/5.0 (Windows NT 10.0; Win64; x64) AppleWebKit/537.36 (KHTML, like Gecko) Chrome/118.0.0.0 Safari/537.36" etag="6o5YDlmeH1aFVDjAE1Ei" version="22.0.7" type="github">
  <diagram id="R2lEEEUBdFMjLlhIrx00" name="Page-1">
    <mxGraphModel dx="2537" dy="868" grid="1" gridSize="10" guides="1" tooltips="1" connect="1" arrows="1" fold="1" page="1" pageScale="1" pageWidth="850" pageHeight="1100" math="0" shadow="0" extFonts="Permanent Marker^https://fonts.googleapis.com/css?family=Permanent+Marker">
      <root>
        <mxCell id="0" />
        <mxCell id="1" parent="0" />
        <mxCell id="C-vyLk0tnHw3VtMMgP7b-1" value="" style="edgeStyle=entityRelationEdgeStyle;endArrow=ERzeroToMany;startArrow=ERone;endFill=1;startFill=0;" parent="1" source="C-vyLk0tnHw3VtMMgP7b-24" target="C-vyLk0tnHw3VtMMgP7b-6" edge="1">
          <mxGeometry width="100" height="100" relative="1" as="geometry">
            <mxPoint x="340" y="720" as="sourcePoint" />
            <mxPoint x="440" y="620" as="targetPoint" />
          </mxGeometry>
        </mxCell>
        <mxCell id="C-vyLk0tnHw3VtMMgP7b-12" value="" style="edgeStyle=entityRelationEdgeStyle;endArrow=ERzeroToMany;startArrow=ERone;endFill=1;startFill=0;" parent="1" source="C-vyLk0tnHw3VtMMgP7b-3" target="C-vyLk0tnHw3VtMMgP7b-17" edge="1">
          <mxGeometry width="100" height="100" relative="1" as="geometry">
            <mxPoint x="400" y="180" as="sourcePoint" />
            <mxPoint x="460" y="205" as="targetPoint" />
          </mxGeometry>
        </mxCell>
        <mxCell id="C-vyLk0tnHw3VtMMgP7b-2" value="数据分析" style="shape=table;startSize=30;container=1;collapsible=1;childLayout=tableLayout;fixedRows=1;rowLines=0;fontStyle=1;align=center;resizeLast=1;fontSize=14;" parent="1" vertex="1">
          <mxGeometry x="415" y="120" width="350" height="220" as="geometry" />
        </mxCell>
        <mxCell id="C-vyLk0tnHw3VtMMgP7b-3" value="" style="shape=partialRectangle;collapsible=0;dropTarget=0;pointerEvents=0;fillColor=none;points=[[0,0.5],[1,0.5]];portConstraint=eastwest;top=0;left=0;right=0;bottom=1;" parent="C-vyLk0tnHw3VtMMgP7b-2" vertex="1">
          <mxGeometry y="30" width="350" height="20" as="geometry" />
        </mxCell>
        <mxCell id="C-vyLk0tnHw3VtMMgP7b-4" value="" style="shape=partialRectangle;overflow=hidden;connectable=0;fillColor=none;top=0;left=0;bottom=0;right=0;fontStyle=1;" parent="C-vyLk0tnHw3VtMMgP7b-3" vertex="1">
          <mxGeometry width="20" height="20" as="geometry">
            <mxRectangle width="20" height="20" as="alternateBounds" />
          </mxGeometry>
        </mxCell>
        <mxCell id="C-vyLk0tnHw3VtMMgP7b-5" value="贝叶斯分析 &amp;PCA（主成分分析）&#xa;：" style="shape=partialRectangle;overflow=hidden;connectable=0;fillColor=none;top=0;left=0;bottom=0;right=0;align=left;spacingLeft=6;fontStyle=5;" parent="C-vyLk0tnHw3VtMMgP7b-3" vertex="1">
          <mxGeometry x="20" width="330" height="20" as="geometry">
            <mxRectangle width="330" height="20" as="alternateBounds" />
          </mxGeometry>
        </mxCell>
        <mxCell id="C-vyLk0tnHw3VtMMgP7b-6" value="" style="shape=partialRectangle;collapsible=0;dropTarget=0;pointerEvents=0;fillColor=#dae8fc;points=[[0,0.5],[1,0.5]];portConstraint=eastwest;top=0;left=0;right=0;bottom=0;strokeColor=#6c8ebf;" parent="C-vyLk0tnHw3VtMMgP7b-2" vertex="1">
          <mxGeometry y="50" width="350" height="90" as="geometry" />
        </mxCell>
        <mxCell id="C-vyLk0tnHw3VtMMgP7b-7" value="" style="shape=partialRectangle;overflow=hidden;connectable=0;top=0;left=0;bottom=0;right=0;verticalAlign=middle;" parent="C-vyLk0tnHw3VtMMgP7b-6" vertex="1">
          <mxGeometry width="20" height="90" as="geometry">
            <mxRectangle width="20" height="90" as="alternateBounds" />
          </mxGeometry>
        </mxCell>
        <mxCell id="C-vyLk0tnHw3VtMMgP7b-8" value="&#xa;目的：基于企业的数字技术采纳和&#xa;研发费用确定企业成功率的概率分布。&#xa;方法：使用贝叶斯方法根据调查中的新数据更新先验分布，&#xa;以获得后验分布。&#xa;" style="shape=partialRectangle;overflow=hidden;connectable=0;fillColor=none;top=0;left=0;bottom=0;right=0;align=left;spacingLeft=6;fontStyle=0" parent="C-vyLk0tnHw3VtMMgP7b-6" vertex="1">
          <mxGeometry x="20" width="330" height="90" as="geometry">
            <mxRectangle width="330" height="90" as="alternateBounds" />
          </mxGeometry>
        </mxCell>
        <mxCell id="C-vyLk0tnHw3VtMMgP7b-9" value="" style="shape=partialRectangle;collapsible=0;dropTarget=0;pointerEvents=0;fillColor=none;points=[[0,0.5],[1,0.5]];portConstraint=eastwest;top=0;left=0;right=0;bottom=0;" parent="C-vyLk0tnHw3VtMMgP7b-2" vertex="1">
          <mxGeometry y="140" width="350" height="70" as="geometry" />
        </mxCell>
        <mxCell id="C-vyLk0tnHw3VtMMgP7b-10" value="" style="shape=partialRectangle;overflow=hidden;connectable=0;fillColor=none;top=0;left=0;bottom=0;right=0;" parent="C-vyLk0tnHw3VtMMgP7b-9" vertex="1">
          <mxGeometry width="20" height="70" as="geometry">
            <mxRectangle width="20" height="70" as="alternateBounds" />
          </mxGeometry>
        </mxCell>
        <mxCell id="C-vyLk0tnHw3VtMMgP7b-11" value="&#xa;目的：减少数据集的维度并&#xa;确定有助于成功数字转型的主要因素。&#xa;方法：对调查数据应用PCA以得到主要成分并&#xa;解释它们的重要性。" style="shape=partialRectangle;overflow=hidden;connectable=0;fillColor=#e1d5e7;top=0;left=0;bottom=0;right=0;align=left;spacingLeft=6;strokeColor=#9673a6;fontStyle=0" parent="C-vyLk0tnHw3VtMMgP7b-9" vertex="1">
          <mxGeometry x="20" width="330" height="70" as="geometry">
            <mxRectangle width="330" height="70" as="alternateBounds" />
          </mxGeometry>
        </mxCell>
        <mxCell id="C-vyLk0tnHw3VtMMgP7b-13" value="结果分析" style="shape=table;startSize=30;container=1;collapsible=1;childLayout=tableLayout;fixedRows=1;rowLines=0;fontStyle=1;align=center;resizeLast=1;fontSize=14;" parent="1" vertex="1">
          <mxGeometry x="430" y="380" width="335" height="160" as="geometry" />
        </mxCell>
        <mxCell id="C-vyLk0tnHw3VtMMgP7b-14" value="" style="shape=partialRectangle;collapsible=0;dropTarget=0;pointerEvents=0;fillColor=none;points=[[0,0.5],[1,0.5]];portConstraint=eastwest;top=0;left=0;right=0;bottom=1;" parent="C-vyLk0tnHw3VtMMgP7b-13" vertex="1">
          <mxGeometry y="30" width="335" height="60" as="geometry" />
        </mxCell>
        <mxCell id="C-vyLk0tnHw3VtMMgP7b-15" value="" style="shape=partialRectangle;overflow=hidden;connectable=0;fillColor=none;top=0;left=0;bottom=0;right=0;fontStyle=1;" parent="C-vyLk0tnHw3VtMMgP7b-14" vertex="1">
          <mxGeometry width="30" height="60" as="geometry">
            <mxRectangle width="30" height="60" as="alternateBounds" />
          </mxGeometry>
        </mxCell>
        <mxCell id="C-vyLk0tnHw3VtMMgP7b-16" value="呈现来自贝叶斯分析的发现 - 例如，&#xa;具有特定研发费用的公司从某种数字技术中&#xa;受益的可能性是多少？" style="shape=partialRectangle;overflow=hidden;connectable=0;fillColor=#b0e3e6;top=0;left=0;bottom=0;right=0;align=left;spacingLeft=6;fontStyle=0;strokeColor=#0e8088;" parent="C-vyLk0tnHw3VtMMgP7b-14" vertex="1">
          <mxGeometry x="30" width="305" height="60" as="geometry">
            <mxRectangle width="305" height="60" as="alternateBounds" />
          </mxGeometry>
        </mxCell>
        <mxCell id="C-vyLk0tnHw3VtMMgP7b-17" value="" style="shape=partialRectangle;collapsible=0;dropTarget=0;pointerEvents=0;fillColor=none;points=[[0,0.5],[1,0.5]];portConstraint=eastwest;top=0;left=0;right=0;bottom=0;" parent="C-vyLk0tnHw3VtMMgP7b-13" vertex="1">
          <mxGeometry y="90" width="335" height="70" as="geometry" />
        </mxCell>
        <mxCell id="C-vyLk0tnHw3VtMMgP7b-18" value="" style="shape=partialRectangle;overflow=hidden;connectable=0;fillColor=none;top=0;left=0;bottom=0;right=0;" parent="C-vyLk0tnHw3VtMMgP7b-17" vertex="1">
          <mxGeometry width="30" height="70" as="geometry">
            <mxRectangle width="30" height="70" as="alternateBounds" />
          </mxGeometry>
        </mxCell>
        <mxCell id="C-vyLk0tnHw3VtMMgP7b-19" value="展示PCA的结果 -&#xa;确定在数据中捕获最大差异的主要成分。&#xa;在数字转型的背景下解释这些组成部分。" style="shape=partialRectangle;overflow=hidden;connectable=0;fillColor=#bac8d3;top=0;left=0;bottom=0;right=0;align=left;spacingLeft=6;strokeColor=#23445d;" parent="C-vyLk0tnHw3VtMMgP7b-17" vertex="1">
          <mxGeometry x="30" width="305" height="70" as="geometry">
            <mxRectangle width="305" height="70" as="alternateBounds" />
          </mxGeometry>
        </mxCell>
        <mxCell id="C-vyLk0tnHw3VtMMgP7b-23" value="数据收集" style="shape=table;startSize=30;container=1;collapsible=1;childLayout=tableLayout;fixedRows=1;rowLines=0;fontStyle=1;align=center;resizeLast=1;" parent="1" vertex="1">
          <mxGeometry x="70" y="70" width="250" height="150" as="geometry" />
        </mxCell>
        <mxCell id="C-vyLk0tnHw3VtMMgP7b-24" value="" style="shape=partialRectangle;collapsible=0;dropTarget=0;pointerEvents=0;fillColor=none;points=[[0,0.5],[1,0.5]];portConstraint=eastwest;top=0;left=0;right=0;bottom=1;" parent="C-vyLk0tnHw3VtMMgP7b-23" vertex="1">
          <mxGeometry y="30" width="250" height="30" as="geometry" />
        </mxCell>
        <mxCell id="C-vyLk0tnHw3VtMMgP7b-25" value="" style="shape=partialRectangle;overflow=hidden;connectable=0;fillColor=none;top=0;left=0;bottom=0;right=0;fontStyle=1;" parent="C-vyLk0tnHw3VtMMgP7b-24" vertex="1">
          <mxGeometry width="30" height="30" as="geometry">
            <mxRectangle width="30" height="30" as="alternateBounds" />
          </mxGeometry>
        </mxCell>
        <mxCell id="C-vyLk0tnHw3VtMMgP7b-26" value="调查设计：" style="shape=partialRectangle;overflow=hidden;connectable=0;fillColor=none;top=0;left=0;bottom=0;right=0;align=left;spacingLeft=6;fontStyle=1;fontSize=14;" parent="C-vyLk0tnHw3VtMMgP7b-24" vertex="1">
          <mxGeometry x="30" width="220" height="30" as="geometry">
            <mxRectangle width="220" height="30" as="alternateBounds" />
          </mxGeometry>
        </mxCell>
        <mxCell id="C-vyLk0tnHw3VtMMgP7b-27" value="" style="shape=partialRectangle;collapsible=0;dropTarget=0;pointerEvents=0;fillColor=none;points=[[0,0.5],[1,0.5]];portConstraint=eastwest;top=0;left=0;right=0;bottom=0;" parent="C-vyLk0tnHw3VtMMgP7b-23" vertex="1">
          <mxGeometry y="60" width="250" height="90" as="geometry" />
        </mxCell>
        <mxCell id="C-vyLk0tnHw3VtMMgP7b-28" value="" style="shape=partialRectangle;overflow=hidden;connectable=0;fillColor=none;top=0;left=0;bottom=0;right=0;" parent="C-vyLk0tnHw3VtMMgP7b-27" vertex="1">
          <mxGeometry width="30" height="90" as="geometry">
            <mxRectangle width="30" height="90" as="alternateBounds" />
          </mxGeometry>
        </mxCell>
        <mxCell id="C-vyLk0tnHw3VtMMgP7b-29" value="创建一个涵盖以下内容的调查：&#xa;采用的数字技术类型。&#xa;这些技术的感知利益和挑战。&#xa;研发费用。&#xa;其他相关的财务或操作数据。" style="shape=partialRectangle;overflow=hidden;connectable=0;fillColor=#b1ddf0;top=0;left=0;bottom=0;right=0;align=left;spacingLeft=6;strokeColor=#10739e;" parent="C-vyLk0tnHw3VtMMgP7b-27" vertex="1">
          <mxGeometry x="30" width="220" height="90" as="geometry">
            <mxRectangle width="220" height="90" as="alternateBounds" />
          </mxGeometry>
        </mxCell>
        <mxCell id="uBrB-Hp8o1UeokX4Ed80-1" value="&lt;font style=&quot;font-size: 13px;&quot;&gt;&lt;br&gt;&lt;/font&gt;&lt;h4 style=&quot;line-height: 150%;&quot;&gt;&lt;span style=&quot;background-color: rgb(248, 206, 204);&quot;&gt;&lt;span style=&quot;color: rgb(55, 65, 81); font-family: Söhne, ui-sans-serif, system-ui, -apple-system, &amp;quot;Segoe UI&amp;quot;, Roboto, Ubuntu, Cantarell, &amp;quot;Noto Sans&amp;quot;, sans-serif, &amp;quot;Helvetica Neue&amp;quot;, Arial, &amp;quot;Apple Color Emoji&amp;quot;, &amp;quot;Segoe UI Emoji&amp;quot;, &amp;quot;Segoe UI Symbol&amp;quot;, &amp;quot;Noto Color Emoji&amp;quot;; font-style: normal; font-variant-ligatures: normal; font-variant-caps: normal; letter-spacing: normal; orphans: 2; text-align: left; text-indent: 0px; text-transform: none; widows: 2; word-spacing: 0px; -webkit-text-stroke-width: 0px; text-decoration-thickness: initial; text-decoration-style: initial; text-decoration-color: initial; float: none; display: inline !important;&quot;&gt;&lt;font style=&quot;&quot;&gt;&lt;font style=&quot;font-size: 15px;&quot;&gt;讨论&lt;/font&gt;&lt;br&gt;&lt;ul style=&quot;font-weight: normal; font-size: 13px;&quot;&gt;&lt;li style=&quot;&quot;&gt;解释并将发现放入上下文中。&lt;/li&gt;&lt;li style=&quot;&quot;&gt;&amp;nbsp;探讨宁波的公司如何根据他们正在考虑的数字技术类型优化他们的研发支出。&amp;nbsp;&lt;/li&gt;&lt;li style=&quot;&quot;&gt;为政府提议潜在策略，以便最大限度地从他们的数字转型计划中受益。&lt;/li&gt;&lt;/ul&gt;&lt;/font&gt;&lt;/span&gt;&lt;/span&gt;&lt;/h4&gt;" style="ellipse;whiteSpace=wrap;html=1;aspect=fixed;fillColor=#f8cecc;strokeColor=#b85450;" vertex="1" parent="1">
          <mxGeometry x="-120" y="230" width="360" height="360" as="geometry" />
        </mxCell>
        <mxCell id="uBrB-Hp8o1UeokX4Ed80-3" value="" style="curved=1;endArrow=classic;html=1;rounded=0;entryX=0;entryY=0.014;entryDx=0;entryDy=0;entryPerimeter=0;exitX=0.989;exitY=0.65;exitDx=0;exitDy=0;exitPerimeter=0;" edge="1" parent="1" source="uBrB-Hp8o1UeokX4Ed80-1" target="C-vyLk0tnHw3VtMMgP7b-17">
          <mxGeometry width="50" height="50" relative="1" as="geometry">
            <mxPoint x="250" y="450" as="sourcePoint" />
            <mxPoint x="290" y="440" as="targetPoint" />
            <Array as="points">
              <mxPoint x="290" y="490" />
              <mxPoint x="240" y="440" />
            </Array>
          </mxGeometry>
        </mxCell>
        <mxCell id="uBrB-Hp8o1UeokX4Ed80-4" value="&lt;p style=&quot;line-height: 150%; font-size: 14px;&quot;&gt;&lt;br&gt;&lt;span style=&quot;color: rgb(55, 65, 81); font-family: Söhne, ui-sans-serif, system-ui, -apple-system, &amp;quot;Segoe UI&amp;quot;, Roboto, Ubuntu, Cantarell, &amp;quot;Noto Sans&amp;quot;, sans-serif, &amp;quot;Helvetica Neue&amp;quot;, Arial, &amp;quot;Apple Color Emoji&amp;quot;, &amp;quot;Segoe UI Emoji&amp;quot;, &amp;quot;Segoe UI Symbol&amp;quot;, &amp;quot;Noto Color Emoji&amp;quot;; font-style: normal; font-variant-ligatures: normal; font-variant-caps: normal; letter-spacing: normal; orphans: 2; text-align: left; text-indent: 0px; text-transform: none; widows: 2; word-spacing: 0px; -webkit-text-stroke-width: 0px; text-decoration-thickness: initial; text-decoration-style: initial; text-decoration-color: initial; float: none; background-color: rgb(255, 206, 159); display: inline !important;&quot;&gt;&lt;b style=&quot;&quot;&gt;&lt;font style=&quot;font-size: 14px;&quot;&gt;结论和建议&lt;/font&gt;&lt;/b&gt;&lt;br&gt;&lt;b&gt;&lt;span style=&quot;&quot;&gt;总结关键发现。&lt;/span&gt;&lt;br&gt;&lt;span style=&quot;&quot;&gt;为宁波地区的企业提供关于数字转型策略的可操作的见解和建议。&lt;/span&gt;&lt;/b&gt;&lt;/span&gt;&lt;b&gt;&lt;br&gt;&lt;/b&gt;&lt;br&gt;&lt;/p&gt;" style="shape=step;perimeter=stepPerimeter;whiteSpace=wrap;html=1;fixedSize=1;fillColor=#fad7ac;strokeColor=#b46504;" vertex="1" parent="1">
          <mxGeometry x="-50" y="630" width="850" height="80" as="geometry" />
        </mxCell>
        <mxCell id="uBrB-Hp8o1UeokX4Ed80-5" value="" style="shape=flexArrow;endArrow=classic;startArrow=classic;html=1;rounded=0;" edge="1" parent="1">
          <mxGeometry width="100" height="100" relative="1" as="geometry">
            <mxPoint x="420" y="630" as="sourcePoint" />
            <mxPoint x="520" y="530" as="targetPoint" />
          </mxGeometry>
        </mxCell>
        <mxCell id="uBrB-Hp8o1UeokX4Ed80-6" value="" style="shape=flexArrow;endArrow=classic;startArrow=classic;html=1;rounded=0;fillColor=#ffcd28;strokeColor=#d79b00;gradientColor=#ffa500;" edge="1" parent="1">
          <mxGeometry width="100" height="100" relative="1" as="geometry">
            <mxPoint x="420" y="630" as="sourcePoint" />
            <mxPoint x="520" y="530" as="targetPoint" />
          </mxGeometry>
        </mxCell>
        <mxCell id="uBrB-Hp8o1UeokX4Ed80-7" value="" style="shape=flexArrow;endArrow=classic;startArrow=classic;html=1;rounded=0;fillColor=#fff2cc;entryX=0.872;entryY=0.839;entryDx=0;entryDy=0;entryPerimeter=0;gradientColor=#ffd966;strokeColor=#d6b656;" edge="1" parent="1" source="uBrB-Hp8o1UeokX4Ed80-4" target="uBrB-Hp8o1UeokX4Ed80-1">
          <mxGeometry width="100" height="100" relative="1" as="geometry">
            <mxPoint x="100" y="640" as="sourcePoint" />
            <mxPoint x="200" y="540" as="targetPoint" />
          </mxGeometry>
        </mxCell>
        <mxCell id="uBrB-Hp8o1UeokX4Ed80-9" value="" style="curved=1;endArrow=classic;html=1;rounded=0;entryX=0.994;entryY=0.386;entryDx=0;entryDy=0;entryPerimeter=0;" edge="1" parent="1" target="uBrB-Hp8o1UeokX4Ed80-1">
          <mxGeometry width="50" height="50" relative="1" as="geometry">
            <mxPoint x="430" y="470" as="sourcePoint" />
            <mxPoint x="200.00000000000006" y="339.99999999999994" as="targetPoint" />
            <Array as="points">
              <mxPoint x="470.08" y="471.92" />
              <mxPoint x="330" y="320" />
              <mxPoint x="420.08" y="421.92" />
            </Array>
          </mxGeometry>
        </mxCell>
      </root>
    </mxGraphModel>
  </diagram>
</mxfile>
